<?xml version="1.0" encoding="UTF-8"?>
<!-- Generated by Pixelmator Pro 3.6.3 -->
<svg width="531" height="531" viewBox="0 0 531 531" xmlns="http://www.w3.org/2000/svg">
    <path id="Path" fill="#005fff" fill-rule="evenodd" stroke="none" d="M 2.16325 241.670013 L 65.729897 329.445984 C 66.722603 330.819 68.009697 331.934021 69.489502 332.700989 C 70.9692 333.468994 72.600998 333.869019 74.255402 333.869019 C 75.909798 333.869019 77.541496 333.468994 79.021301 332.700989 C 80.500999 331.934021 81.7882 330.819 82.780899 329.445984 L 138.643997 252.304016 C 143.673996 245.354004 139.378006 235.389008 131.031998 234.644012 L 11.6022 224.013 C 2.41597 223.194 -3.37223 234.031006 2.16325 241.670013 Z"/>
    <linearGradient id="linearGradient1" x1="-539.542" y1="-292.947" x2="-698.579" y2="13.9317" gradientUnits="userSpaceOnUse">
        <stop offset="0.177786" stop-color="#b38af8" stop-opacity="1"/>
        <stop offset="0.563822" stop-color="#005fff" stop-opacity="1"/>
        <stop offset="1" stop-color="#00ecbb" stop-opacity="1"/>
    </linearGradient>
    <path id="path1" fill="url(#linearGradient1)" fill-rule="evenodd" stroke="none" d="M 2.16325 241.670013 L 65.729897 329.445984 C 66.722603 330.819 68.009697 331.934021 69.489502 332.700989 C 70.9692 333.468994 72.600998 333.869019 74.255402 333.869019 C 75.909798 333.869019 77.541496 333.468994 79.021301 332.700989 C 80.500999 331.934021 81.7882 330.819 82.780899 329.445984 L 138.643997 252.304016 C 143.673996 245.354004 139.378006 235.389008 131.031998 234.644012 L 11.6022 224.013 C 2.41597 223.194 -3.37223 234.031006 2.16325 241.670013 Z"/>
    <path id="path2" fill="#005fff" fill-rule="evenodd" stroke="none" d="M 400.105988 241.337006 L 284.519012 400.946014 C 279.242004 408.234985 284.253998 418.638 293.044006 418.638 L 393.878998 418.638 C 396.006012 418.638 398.104004 418.123993 400.006989 417.136993 C 401.908997 416.149994 403.563995 414.71701 404.841003 412.951996 L 528.630981 242.031982 C 534.208984 234.333008 528.289978 223.429993 519.052002 224.386993 L 409.712006 235.729004 C 407.824005 235.923004 405.994995 236.520996 404.34201 237.485992 C 402.687988 238.451996 401.246002 239.763 400.105988 241.337006 Z"/>
    <linearGradient id="linearGradient2" x1="-669.648" y1="-689.613" x2="-973.828" y2="-105.34" gradientUnits="userSpaceOnUse">
        <stop offset="0.177786" stop-color="#b38af8" stop-opacity="1"/>
        <stop offset="0.563822" stop-color="#005fff" stop-opacity="1"/>
        <stop offset="1" stop-color="#00ecbb" stop-opacity="1"/>
    </linearGradient>
    <path id="path3" fill="url(#linearGradient2)" fill-rule="evenodd" stroke="none" d="M 400.105988 241.337006 L 284.519012 400.946014 C 279.242004 408.234985 284.253998 418.638 293.044006 418.638 L 393.878998 418.638 C 396.006012 418.638 398.104004 418.123993 400.006989 417.136993 C 401.908997 416.149994 403.563995 414.71701 404.841003 412.951996 L 528.630981 242.031982 C 534.208984 234.333008 528.289978 223.429993 519.052002 224.386993 L 409.712006 235.729004 C 407.824005 235.923004 405.994995 236.520996 404.34201 237.485992 C 402.687988 238.451996 401.246002 239.763 400.105988 241.337006 Z"/>
    <path id="path4" fill="#005fff" fill-rule="evenodd" stroke="none" d="M 368.217987 242.656006 L 244.412003 413.627014 C 243.128006 415.403015 241.460999 416.842987 239.544006 417.829987 C 237.628006 418.817993 235.514999 419.325989 233.375 419.312988 L 137.100998 418.681 C 134.992996 418.669006 132.916 418.151001 131.033005 417.170013 C 129.149002 416.188995 127.509003 414.769989 126.239998 413.02301 L 95.849503 371.231995 C 94.057899 368.769012 93.087303 365.768005 93.084 362.682007 C 93.080704 359.596985 94.044899 356.593994 95.8312 354.127014 L 267.06601 117.676605 C 268.338013 115.920227 269.984009 114.493622 271.877014 113.508698 C 273.769989 112.523804 275.855988 112.007416 277.973999 112.000092 C 280.091003 111.992737 282.181 112.494629 284.079987 113.46637 C 285.979004 114.43811 287.63501 115.853271 288.917999 117.600769 L 368.157013 225.489014 C 369.968994 227.951996 370.955994 230.963013 370.96701 234.062012 C 370.977997 237.161011 370.011993 240.179016 368.217987 242.656006 Z"/>
    <linearGradient id="linearGradient3" x1="-971.782" y1="-1333.45" x2="-1525.74" y2="-608.137" gradientUnits="userSpaceOnUse">
        <stop offset="0.177786" stop-color="#b38af8" stop-opacity="1"/>
        <stop offset="0.563822" stop-color="#005fff" stop-opacity="1"/>
        <stop offset="1" stop-color="#00ecbb" stop-opacity="1"/>
    </linearGradient>
    <path id="path5" fill="url(#linearGradient3)" fill-rule="evenodd" stroke="none" d="M 368.217987 242.656006 L 244.412003 413.627014 C 243.128006 415.403015 241.460999 416.842987 239.544006 417.829987 C 237.628006 418.817993 235.514999 419.325989 233.375 419.312988 L 137.100998 418.681 C 134.992996 418.669006 132.916 418.151001 131.033005 417.170013 C 129.149002 416.188995 127.509003 414.769989 126.239998 413.02301 L 95.849503 371.231995 C 94.057899 368.769012 93.087303 365.768005 93.084 362.682007 C 93.080704 359.596985 94.044899 356.593994 95.8312 354.127014 L 267.06601 117.676605 C 268.338013 115.920227 269.984009 114.493622 271.877014 113.508698 C 273.769989 112.523804 275.855988 112.007416 277.973999 112.000092 C 280.091003 111.992737 282.181 112.494629 284.079987 113.46637 C 285.979004 114.43811 287.63501 115.853271 288.917999 117.600769 L 368.157013 225.489014 C 369.968994 227.951996 370.955994 230.963013 370.96701 234.062012 C 370.977997 237.161011 370.011993 240.179016 368.217987 242.656006 Z"/>
</svg>
