<?xml version="1.0" encoding="UTF-8"?>
<!-- Generated by Pixelmator Pro 3.6.3 -->
<svg width="20" height="20" viewBox="0 0 20 20" xmlns="http://www.w3.org/2000/svg">
    <path id="Path" fill="#005fff" fill-rule="evenodd" stroke="none" d="M 0.081478 9.102448 L 2.475702 12.408512 C 2.513092 12.460226 2.56157 12.502223 2.617307 12.531111 C 2.673039 12.560038 2.734501 12.575104 2.796814 12.575104 C 2.859126 12.575104 2.920584 12.560038 2.97632 12.531111 C 3.032053 12.502223 3.080535 12.460226 3.117925 12.408512 L 5.221996 9.502976 C 5.41145 9.241205 5.249642 8.865876 4.935292 8.837816 L 0.436994 8.437401 C 0.090997 8.406553 -0.127014 8.814727 0.081478 9.102448 Z"/>
    <linearGradient id="linearGradient1" x1="-20.321733" y1="-11.033785" x2="-26.311827" y2="0.524734" gradientUnits="userSpaceOnUse">
        <stop offset="0.177786" stop-color="#b38af8" stop-opacity="1"/>
        <stop offset="0.563822" stop-color="#005fff" stop-opacity="1"/>
        <stop offset="1" stop-color="#00ecbb" stop-opacity="1"/>
    </linearGradient>
    <path id="path1" fill="url(#linearGradient1)" fill-rule="evenodd" stroke="none" d="M 0.081478 9.102448 L 2.475702 12.408512 C 2.513092 12.460226 2.56157 12.502223 2.617307 12.531111 C 2.673039 12.560038 2.734501 12.575104 2.796814 12.575104 C 2.859126 12.575104 2.920584 12.560038 2.97632 12.531111 C 3.032053 12.502223 3.080535 12.460226 3.117925 12.408512 L 5.221996 9.502976 C 5.41145 9.241205 5.249642 8.865876 4.935292 8.837816 L 0.436994 8.437401 C 0.090997 8.406553 -0.127014 8.814727 0.081478 9.102448 Z"/>
    <path id="path2" fill="#005fff" fill-rule="evenodd" stroke="none" d="M 15.069905 9.089906 L 10.716347 15.101545 C 10.51759 15.376082 10.706366 15.76791 11.037439 15.76791 L 14.835367 15.76791 C 14.915481 15.76791 14.994501 15.748549 15.066176 15.711374 C 15.137815 15.6742 15.20015 15.620226 15.248249 15.553747 L 19.910772 9.116082 C 20.120865 8.826102 19.897928 8.415442 19.549982 8.451488 L 15.431714 8.878682 C 15.360602 8.885989 15.291714 8.908512 15.229454 8.944859 C 15.167156 8.981243 15.112844 9.030622 15.069905 9.089906 Z"/>
    <linearGradient id="linearGradient2" x1="-25.222147" y1="-25.974124" x2="-36.679021" y2="-3.967608" gradientUnits="userSpaceOnUse">
        <stop offset="0.177786" stop-color="#b38af8" stop-opacity="1"/>
        <stop offset="0.563822" stop-color="#005fff" stop-opacity="1"/>
        <stop offset="1" stop-color="#00ecbb" stop-opacity="1"/>
    </linearGradient>
    <path id="path3" fill="url(#linearGradient2)" fill-rule="evenodd" stroke="none" d="M 15.069905 9.089906 L 10.716347 15.101545 C 10.51759 15.376082 10.706366 15.76791 11.037439 15.76791 L 14.835367 15.76791 C 14.915481 15.76791 14.994501 15.748549 15.066176 15.711374 C 15.137815 15.6742 15.20015 15.620226 15.248249 15.553747 L 19.910772 9.116082 C 20.120865 8.826102 19.897928 8.415442 19.549982 8.451488 L 15.431714 8.878682 C 15.360602 8.885989 15.291714 8.908512 15.229454 8.944859 C 15.167156 8.981243 15.112844 9.030622 15.069905 9.089906 Z"/>
    <path id="path4" fill="#005fff" fill-rule="evenodd" stroke="none" d="M 13.868851 9.139585 L 9.205725 15.579172 C 9.157364 15.646065 9.094576 15.7003 9.022373 15.737476 C 8.950208 15.774689 8.870622 15.793823 8.790019 15.793333 L 5.163879 15.769529 C 5.084482 15.769077 5.006252 15.749567 4.93533 15.712618 C 4.864369 15.675669 4.802599 15.622222 4.754802 15.556422 L 3.610151 13.982372 C 3.54267 13.889605 3.506113 13.776573 3.505989 13.660339 C 3.505865 13.544143 3.542181 13.431036 3.609461 13.338118 L 10.058984 4.432263 C 10.106894 4.36611 10.168889 4.312378 10.240189 4.275281 C 10.311487 4.238185 10.390056 4.218735 10.469831 4.218459 C 10.549567 4.218183 10.628286 4.237086 10.699811 4.273686 C 10.771338 4.310287 10.833711 4.363588 10.882034 4.429407 L 13.866554 8.492995 C 13.934802 8.585763 13.971977 8.699172 13.972392 8.815895 C 13.972806 8.932618 13.936421 9.04629 13.868851 9.139585 Z"/>
    <linearGradient id="linearGradient3" x1="-36.601959" y1="-50.224105" x2="-57.466667" y2="-22.905348" gradientUnits="userSpaceOnUse">
        <stop offset="0.177786" stop-color="#b38af8" stop-opacity="1"/>
        <stop offset="0.563822" stop-color="#005fff" stop-opacity="1"/>
        <stop offset="1" stop-color="#00ecbb" stop-opacity="1"/>
    </linearGradient>
    <path id="path5" fill="url(#linearGradient3)" fill-rule="evenodd" stroke="none" d="M 13.868851 9.139585 L 9.205725 15.579172 C 9.157364 15.646065 9.094576 15.7003 9.022373 15.737476 C 8.950208 15.774689 8.870622 15.793823 8.790019 15.793333 L 5.163879 15.769529 C 5.084482 15.769077 5.006252 15.749567 4.93533 15.712618 C 4.864369 15.675669 4.802599 15.622222 4.754802 15.556422 L 3.610151 13.982372 C 3.54267 13.889605 3.506113 13.776573 3.505989 13.660339 C 3.505865 13.544143 3.542181 13.431036 3.609461 13.338118 L 10.058984 4.432263 C 10.106894 4.36611 10.168889 4.312378 10.240189 4.275281 C 10.311487 4.238185 10.390056 4.218735 10.469831 4.218459 C 10.549567 4.218183 10.628286 4.237086 10.699811 4.273686 C 10.771338 4.310287 10.833711 4.363588 10.882034 4.429407 L 13.866554 8.492995 C 13.934802 8.585763 13.971977 8.699172 13.972392 8.815895 C 13.972806 8.932618 13.936421 9.04629 13.868851 9.139585 Z"/>
</svg>
