<?xml version="1.0" encoding="UTF-8"?>
<!-- Generated by Pixelmator Pro 3.3.6 -->
<svg width="40" height="40" viewBox="0 0 40 40" xmlns="http://www.w3.org/2000/svg">
    <g id="Landing">
        <g id="06-Getting-Started-Landing-Page">
            <g id="Header-Nav-">
                <g id="Stream-Logo">
                    <g id="Stream-Blue-Logo-">
                        <path id="STREAM-MARK" fill="#2f7deb" fill-rule="evenodd" stroke="none" d="M 26.149199 16.42807 L 38.952297 15.52047 C 39.797398 15.460569 40.329498 16.41297 39.8354 17.10117 L 30.879099 29.57637 C 30.691298 29.837969 30.388899 29.99317 30.066799 29.99317 L 9.982299 29.99317 C 9.660699 29.99317 9.358699 29.83847 9.170698 29.57737 L 0.190598 17.102169 C -0.304702 16.41407 0.227398 15.460369 1.073198 15.52047 L 13.837298 16.428169 L 19.288998 10.333269 C 19.688498 9.886669 20.388498 9.889269 20.784698 10.33897 L 26.149199 16.42807 Z M 28.830399 28.015274 L 20.521297 24.909973 L 20.521297 28.015274 L 28.830399 28.015274 Z M 19.521297 28.015274 L 19.521297 24.909973 L 11.212198 28.015274 L 19.521297 28.015274 Z M 18.562498 24.168171 L 10.072998 27.33717 L 3.827399 18.655571 L 18.562498 24.168171 Z M 21.462799 24.168171 L 29.952299 27.33717 L 36.197899 18.655571 L 21.462799 24.168171 Z M 19.529299 23.443571 L 19.529299 12.99477 L 12.587898 20.83057 L 19.529299 23.443571 Z M 20.521297 23.443571 L 20.521297 12.996069 L 27.462799 20.83057 L 20.521297 23.443571 Z M 10.552299 20.108271 L 12.149399 18.313671 L 4.346698 17.754471 L 10.552299 20.108271 Z M 29.414898 20.108271 L 27.817898 18.313671 L 35.620598 17.754471 L 29.414898 20.108271 Z"/>
                    </g>
                </g>
            </g>
        </g>
    </g>
</svg>
